PathFileType	4	(x/y/z)	TRC_MarkerData\Passive\Passive_Pref0005.trc
DataRate	CameraRate	NumFrames	NumMarkers	Units	OrigDataRate	OrigDataStartFrame	OrigNumFrames
240	240	4	50	mm	240	229	304
Frame#	Time	R_AC			L_AC			HEAD			STERN			C7			L_IC			R_IC			L_ASIS			R_ASIS			L_GT			R_GT			L_PSIS			R_PSIS			SACRAL			L_LAT_KNEE			L_MED_KNEE			R_LAT_KNEE			R_MED_KNEE			L_LAT_ANK			L_MED_ANK			R_LAT_ANK			R_MED_ANK			L_THIGH_PROX_POST			L_THIGH_PROX_ANT			L_THIGH_DIST_ANT			L_THIGH_DIST_POST			R_THIGH_PROX_POST			R_THIGH_PROX_ANT			R_THIGH_DIST_ANT			R_THIGH_DIST_POST			L_SHANK_PROX_POST			L_SHANK_PROX_ANT			L_SHANK_DIST_ANT			L_SHANK_DIST_POST			R_SHANK_PROX_POST			R_SHANK_PROX_ANT			R_SHANK_DIST_ANT			R_SHANK_DIST_POST			L_HEEL_LAT			L_HEEL_SUP			L_HEEL_MED			R_HEEL_LAT			R_HEEL_SUP			R_HEEL_MED			L_1ST_MET			L_5TH_MET			L_TOE			R_1ST_MET			R_5TH_MET			R_TOE			
		X1	Y1	Z1	X2	Y2	Z2	X3	Y3	Z3	X4	Y4	Z4	X5	Y5	Z5	X6	Y6	Z6	X7	Y7	Z7	X8	Y8	Z8	X9	Y9	Z9	X10	Y10	Z10	X11	Y11	Z11	X12	Y12	Z12	X13	Y13	Z13	X14	Y14	Z14	X15	Y15	Z15	X16	Y16	Z16	X17	Y17	Z17	X18	Y18	Z18	X19	Y19	Z19	X20	Y20	Z20	X21	Y21	Z21	X22	Y22	Z22	X23	Y23	Z23	X24	Y24	Z24	X25	Y25	Z25	X26	Y26	Z26	X27	Y27	Z27	X28	Y28	Z28	X29	Y29	Z29	X30	Y30	Z30	X31	Y31	Z31	X32	Y32	Z32	X33	Y33	Z33	X34	Y34	Z34	X35	Y35	Z35	X36	Y36	Z36	X37	Y37	Z37	X38	Y38	Z38	X39	Y39	Z39	X40	Y40	Z40	X41	Y41	Z41	X42	Y42	Z42	X43	Y43	Z43	X44	Y44	Z44	X45	Y45	Z45	X46	Y46	Z46	X47	Y47	Z47	X48	Y48	Z48	X49	Y49	Z49	X50	Y50	Z50	

229	0.95314	363.54	1542.1	494.19	341.27	1565.5	104.99	471.81	1849.8	318.29	453.83	1514.6	295.88	311.01	1595.5	305.38	355.11	1106.1	134.48	372.4	1124.8	474.13	427.6	1050.4	167.64	436.44	1048.9	437.54	352.14	966.88	113.9	353.38	974.66	488.01	224.45	1061	259.06	232.94	1068	367.77	215.33	1040.1	314.98	465.38	569.01	120.48	484.95	566.36	255.28	386.07	552.14	437.93	406.25	556.41	312.53	153.06	241.13	144.71	153.9	244.35	222.9	299.58	102.98	367.63	332.84	121.71	272.45	376.19	812.8	118.12	440.91	826.43	116.5	461.72	754.05	118.18	398.12	741.94	120.84	346.32	794.13	473.32	413.07	798.39	482.56	412.97	724.55	470.17	345.96	720.41	457.31	438.13	523.13	128.61	480.93	509.98	139.99	451.58	469.29	147.3	402.38	482.64	135.11	293.77	402.58	419.54	362.01	403.23	439.25	362.09	330.02	424.91	294.55	327.06	406.31	58.86	215.62	148.02	65.612	241.2	184.29	53.818	212.11	215.83	234.31	51.857	335.93	230.78	78.095	299.97	250.46	50.1	270.44	243.84	90.97	240.88	227.12	95.136	135.41	292.31	69.996	216.72	480.44	44.568	296.82	434.49	35.931	402.93	518.32	50.314	352.87
230	0.95732	368.44	1542.8	494.33	346.31	1566.1	105.11	476.91	1850.4	318.19	458.82	1515.3	296.06	316.03	1596.2	305.49	360.24	1106.7	134.69	376.88	1125.4	474.28	432.73	1051.3	168.15	440.84	1049.3	438.04	357.78	967.87	113.99	357.25	975.17	488.08	229.33	1061.7	258.79	237.57	1068.7	367.51	220.13	1040.8	314.67	474	570.57	121.02	493.17	568.39	255.92	386.9	552.51	438.12	407.54	556.59	312.8	167.5	237.14	144.02	167.96	240.38	222.14	299.89	103.38	367.66	333.26	122.18	272.54	382.89	813.93	118.11	447.55	828.04	116.93	468.87	755.82	118.63	405.35	743.21	120.93	348.87	794.83	473.32	415.58	798.64	482.83	415.03	724.78	470.39	348.04	721.1	457.28	447.55	524.2	129.05	490.51	511.86	140.65	461.86	470.65	147.84	412.5	483.1	135.4	294.35	403.17	419.47	362.53	403.68	439.41	362.52	330.46	425.08	295.03	327.63	406.27	73.751	209.97	146.88	79.863	235.67	183.15	68.483	206.4	214.69	234.48	52.52	335.93	231.04	78.805	300.02	250.63	50.816	270.4	260.49	88.723	240.65	244.2	92.539	135.11	309.45	68.604	216.72	480.58	44.497	296.9	434.58	35.906	402.97	518.47	50.052	352.94
231	0.9615	373.33	1543.4	494.46	351.35	1566.8	105.22	481.99	1851	318.09	463.8	1515.8	296.24	321.06	1596.8	305.6	365.36	1107.4	134.88	381.34	1126	474.43	437.86	1052.1	168.64	445.21	1049.7	438.53	363.4	968.8	114.08	361.11	975.67	488.13	234.21	1062.4	258.49	242.2	1069.4	367.23	224.91	1041.5	314.34	482.5	572.08	121.6	501.28	570.36	256.59	387.76	552.88	438.3	408.85	556.76	313.06	182.07	233.08	143.34	182.14	236.35	221.4	300.19	103.79	367.7	333.68	122.65	272.63	389.52	815.01	118.13	454.12	829.59	117.35	475.92	757.52	119.1	412.49	744.42	121.03	351.42	795.52	473.32	418.1	798.88	483.09	417.09	725	470.6	350.13	721.78	457.27	456.89	525.24	129.53	500	513.71	141.35	472.09	471.99	148.42	422.56	483.51	135.73	294.94	403.75	419.39	363.06	404.14	439.56	362.96	330.9	425.25	295.52	328.21	406.22	88.811	204.23	145.75	94.262	230.04	182.01	83.318	200.59	213.56	234.66	53.201	335.94	231.32	79.532	300.07	250.79	51.551	270.36	277.29	86.486	240.45	261.43	89.961	134.85	326.72	67.253	216.77	480.71	44.426	296.98	434.67	35.883	403.01	518.63	49.793	353.02
232	0.96568	378.21	1544	494.59	356.41	1567.3	105.33	487.08	1851.5	317.99	468.8	1516.4	296.42	326.09	1597.4	305.7	370.5	1108	135.05	385.78	1126.5	474.56	442.99	1052.9	169.13	449.57	1050	439.01	369	969.68	114.17	364.96	976.14	488.17	239.09	1063	258.17	246.81	1070.1	366.92	229.67	1042.1	313.99	490.9	573.54	122.2	509.28	572.28	257.28	388.63	553.25	438.48	410.18	556.92	313.31	196.76	228.97	142.69	196.43	232.27	220.68	300.48	104.21	367.75	334.11	123.12	272.72	396.1	816.05	118.16	460.6	831.06	117.77	482.89	759.15	119.59	419.55	745.59	121.16	353.98	796.19	473.31	420.63	799.1	483.33	419.16	725.23	470.81	352.22	722.45	457.25	466.15	526.23	130.04	509.4	515.54	142.08	482.24	473.3	149.03	432.57	483.89	136.08	295.55	404.33	419.31	363.6	404.6	439.7	363.41	331.35	425.41	296.02	328.78	406.17	104.04	198.41	144.63	108.81	224.33	180.89	98.323	194.7	212.45	234.84	53.895	335.95	231.63	80.272	300.13	250.95	52.3	270.32	294.22	84.269	240.28	278.82	87.414	134.61	344.12	65.954	216.84	480.85	44.357	297.05	434.75	35.862	403.05	518.79	49.536	353.09
